<mxfile host="Electron" agent="Mozilla/5.0 (Windows NT 10.0; Win64; x64) AppleWebKit/537.36 (KHTML, like Gecko) draw.io/24.7.8 Chrome/128.0.6613.36 Electron/32.0.1 Safari/537.36" version="24.7.8">
  <diagram name="Page-1" id="fpAZ6RX-yuAjJ-4CLtjA">
    <mxGraphModel dx="1098" dy="988" grid="1" gridSize="10" guides="1" tooltips="1" connect="1" arrows="1" fold="1" page="1" pageScale="1" pageWidth="850" pageHeight="1100" math="0" shadow="0">
      <root>
        <mxCell id="0" />
        <mxCell id="1" parent="0" />
        <mxCell id="K6SCjOqGUs0aXg2CCzXt-4" style="edgeStyle=orthogonalEdgeStyle;rounded=0;orthogonalLoop=1;jettySize=auto;html=1;" edge="1" parent="1" source="K6SCjOqGUs0aXg2CCzXt-1" target="K6SCjOqGUs0aXg2CCzXt-2">
          <mxGeometry relative="1" as="geometry" />
        </mxCell>
        <mxCell id="K6SCjOqGUs0aXg2CCzXt-1" value="Your Java APP" style="rounded=0;whiteSpace=wrap;html=1;fillColor=#dae8fc;strokeColor=#6c8ebf;" vertex="1" parent="1">
          <mxGeometry x="190" y="320" width="160" height="50" as="geometry" />
        </mxCell>
        <mxCell id="K6SCjOqGUs0aXg2CCzXt-5" style="edgeStyle=orthogonalEdgeStyle;rounded=0;orthogonalLoop=1;jettySize=auto;html=1;" edge="1" parent="1" source="K6SCjOqGUs0aXg2CCzXt-2" target="K6SCjOqGUs0aXg2CCzXt-3">
          <mxGeometry relative="1" as="geometry" />
        </mxCell>
        <mxCell id="K6SCjOqGUs0aXg2CCzXt-2" value="Hibernate" style="rounded=0;whiteSpace=wrap;html=1;fillColor=#d5e8d4;strokeColor=#82b366;" vertex="1" parent="1">
          <mxGeometry x="430" y="320" width="160" height="50" as="geometry" />
        </mxCell>
        <mxCell id="K6SCjOqGUs0aXg2CCzXt-3" value="Database" style="shape=cylinder3;whiteSpace=wrap;html=1;boundedLbl=1;backgroundOutline=1;size=15;fillColor=#f5f5f5;fontColor=#333333;strokeColor=#666666;" vertex="1" parent="1">
          <mxGeometry x="670" y="305" width="60" height="80" as="geometry" />
        </mxCell>
      </root>
    </mxGraphModel>
  </diagram>
</mxfile>
